<svg width="271" height="72" viewBox="0 0 271 72" fill="none" xmlns="http://www.w3.org/2000/svg">
<path d="M0.5 71V1.18182H19.4545V55.7273H47.6818V71H0.5ZM120.261 36.0909C120.261 43.8636 118.75 50.4205 115.727 55.7614C112.705 61.0795 108.625 65.1136 103.489 67.8636C98.3523 70.5909 92.625 71.9545 86.3068 71.9545C79.9432 71.9545 74.1932 70.5795 69.0568 67.8295C63.9432 65.0568 59.875 61.0114 56.8523 55.6932C53.8523 50.3523 52.3523 43.8182 52.3523 36.0909C52.3523 28.3182 53.8523 21.7727 56.8523 16.4545C59.875 11.1136 63.9432 7.07954 69.0568 4.35227C74.1932 1.60227 79.9432 0.22727 86.3068 0.22727C92.625 0.22727 98.3523 1.60227 103.489 4.35227C108.625 7.07954 112.705 11.1136 115.727 16.4545C118.75 21.7727 120.261 28.3182 120.261 36.0909ZM100.761 36.0909C100.761 31.9091 100.205 28.3864 99.0909 25.5227C98 22.6364 96.375 20.4545 94.2159 18.9773C92.0795 17.4773 89.4432 16.7273 86.3068 16.7273C83.1705 16.7273 80.5227 17.4773 78.3636 18.9773C76.2273 20.4545 74.6023 22.6364 73.4886 25.5227C72.3977 28.3864 71.8523 31.9091 71.8523 36.0909C71.8523 40.2727 72.3977 43.8068 73.4886 46.6932C74.6023 49.5568 76.2273 51.7386 78.3636 53.2386C80.5227 54.7159 83.1705 55.4545 86.3068 55.4545C89.4432 55.4545 92.0795 54.7159 94.2159 53.2386C96.375 51.7386 98 49.5568 99.0909 46.6932C100.205 43.8068 100.761 40.2727 100.761 36.0909ZM174.372 24.2273C174.077 23.0227 173.611 21.9659 172.974 21.0568C172.338 20.125 171.543 19.3409 170.588 18.7045C169.656 18.0455 168.565 17.5568 167.315 17.2386C166.088 16.8977 164.736 16.7273 163.259 16.7273C160.077 16.7273 157.361 17.4886 155.111 19.0114C152.884 20.5341 151.179 22.7273 149.997 25.5909C148.838 28.4545 148.259 31.9091 148.259 35.9545C148.259 40.0455 148.815 43.5455 149.929 46.4545C151.043 49.3636 152.702 51.5909 154.906 53.1364C157.111 54.6818 159.849 55.4545 163.122 55.4545C166.009 55.4545 168.406 55.0341 170.315 54.1932C172.247 53.3523 173.69 52.1591 174.645 50.6136C175.599 49.0682 176.077 47.25 176.077 45.1591L179.349 45.5H163.395V32H194.349V41.6818C194.349 48.0455 192.997 53.4886 190.293 58.0114C187.611 62.5114 183.906 65.9659 179.179 68.375C174.474 70.7614 169.077 71.9545 162.986 71.9545C156.19 71.9545 150.224 70.5114 145.088 67.625C139.952 64.7386 135.94 60.625 133.054 55.2841C130.19 49.9432 128.759 43.5909 128.759 36.2273C128.759 30.4545 129.634 25.3409 131.384 20.8864C133.156 16.4318 135.611 12.6705 138.747 9.60227C141.884 6.51136 145.509 4.18182 149.622 2.61363C153.736 1.02272 158.145 0.22727 162.849 0.22727C166.986 0.22727 170.827 0.81818 174.372 2C177.94 3.15909 181.088 4.81818 183.815 6.97727C186.565 9.11363 188.781 11.6477 190.463 14.5795C192.145 17.5114 193.168 20.7273 193.531 24.2273H174.372ZM270.824 36.0909C270.824 43.8636 269.313 50.4205 266.29 55.7614C263.267 61.0795 259.188 65.1136 254.051 67.8636C248.915 70.5909 243.188 71.9545 236.869 71.9545C230.506 71.9545 224.756 70.5795 219.619 67.8295C214.506 65.0568 210.438 61.0114 207.415 55.6932C204.415 50.3523 202.915 43.8182 202.915 36.0909C202.915 28.3182 204.415 21.7727 207.415 16.4545C210.438 11.1136 214.506 7.07954 219.619 4.35227C224.756 1.60227 230.506 0.22727 236.869 0.22727C243.188 0.22727 248.915 1.60227 254.051 4.35227C259.188 7.07954 263.267 11.1136 266.29 16.4545C269.313 21.7727 270.824 28.3182 270.824 36.0909ZM251.324 36.0909C251.324 31.9091 250.767 28.3864 249.653 25.5227C248.562 22.6364 246.938 20.4545 244.778 18.9773C242.642 17.4773 240.006 16.7273 236.869 16.7273C233.733 16.7273 231.085 17.4773 228.926 18.9773C226.79 20.4545 225.165 22.6364 224.051 25.5227C222.96 28.3864 222.415 31.9091 222.415 36.0909C222.415 40.2727 222.96 43.8068 224.051 46.6932C225.165 49.5568 226.79 51.7386 228.926 53.2386C231.085 54.7159 233.733 55.4545 236.869 55.4545C240.006 55.4545 242.642 54.7159 244.778 53.2386C246.938 51.7386 248.562 49.5568 249.653 46.6932C250.767 43.8068 251.324 40.2727 251.324 36.0909Z" fill="black"/>
</svg>
